<?xml version="1.0" encoding="UTF-8" standalone="no"?>
<!-- Generator: Adobe Illustrator 15.0.2, SVG Export Plug-In . SVG Version: 6.00 Build 0)  -->

<svg
   xmlns:dc="http://purl.org/dc/elements/1.1/"
   xmlns:cc="http://creativecommons.org/ns#"
   xmlns:rdf="http://www.w3.org/1999/02/22-rdf-syntax-ns#"
   xmlns:svg="http://www.w3.org/2000/svg"
   xmlns="http://www.w3.org/2000/svg"
   xmlns:sodipodi="http://sodipodi.sourceforge.net/DTD/sodipodi-0.dtd"
   xmlns:inkscape="http://www.inkscape.org/namespaces/inkscape"
   version="1.1"
   x="0px"
   y="0px"
   width="435.27853"
   height="80.878281"
   viewBox="0 0 435.27852 80.87828"
   enable-background="new 0 0 289.333 122.833"
   xml:space="preserve"
   id="svg3412"
   inkscape:version="0.91 r13725"
   sodipodi:docname="logo.svg"><metadata
     id="metadata3448"><rdf:RDF><cc:Work
         rdf:about=""><dc:format>image/svg+xml</dc:format><dc:type
           rdf:resource="http://purl.org/dc/dcmitype/StillImage" /><dc:title /></cc:Work></rdf:RDF></metadata><defs
     id="defs3446" /><sodipodi:namedview
     pagecolor="#ffffff"
     bordercolor="#666666"
     borderopacity="1"
     objecttolerance="10"
     gridtolerance="10"
     guidetolerance="10"
     inkscape:pageopacity="0"
     inkscape:pageshadow="2"
     inkscape:window-width="1276"
     inkscape:window-height="755"
     id="namedview3444"
     showgrid="false"
     inkscape:zoom="2.7811812"
     inkscape:cx="334.7178"
     inkscape:cy="15.735509"
     inkscape:window-x="4"
     inkscape:window-y="1"
     inkscape:window-maximized="1"
     inkscape:current-layer="svg3412"
     fit-margin-top="0"
     fit-margin-left="0"
     fit-margin-right="0"
     fit-margin-bottom="0" /><g
     id="fond"
     transform="translate(78.765982,-5.783153)" /><g
     id="compacte"
     transform="translate(78.765982,-5.783153)" /><g
     id="rectangle"
     transform="translate(78.765982,-5.783153)" /><g
     id="g3418"
     transform="matrix(1.4405507,0,0,1.4405507,-44.059245,-43.213639)"><g
       id="g3420"><circle
         style="fill:#89609e"
         id="circle3422"
         r="28.072001"
         cy="58.07"
         cx="58.657001" /><path
         style="fill:#ffffff"
         inkscape:connector-curvature="0"
         id="path3424"
         d="m 70.93,40.385 c -2.851,0.1 -5.342,1.672 -7.193,3.846 -2.053,2.384 -3.417,5.213 -4.401,8.099 -1.759,-1.442 -3.116,-3.308 -5.938,-4.122 -2.183,-0.627 -4.473,-0.369 -6.58,1.201 -0.999,0.746 -1.686,1.873 -2.013,2.932 -0.848,2.754 0.889,5.205 1.679,6.086 l 1.725,1.846 c 0.356,0.363 1.211,1.309 0.794,2.664 -0.453,1.475 -2.229,2.428 -4.052,1.867 -0.814,-0.252 -1.984,-0.857 -1.721,-1.709 0.108,-0.35 0.358,-0.613 0.493,-0.912 0.123,-0.26 0.181,-0.454 0.218,-0.568 0.333,-1.088 -0.122,-2.502 -1.286,-2.861 -1.087,-0.332 -2.197,-0.068 -2.628,1.329 -0.49,1.591 0.271,4.472 4.344,5.729 4.772,1.467 8.809,-1.133 9.381,-4.521 0.361,-2.122 -0.599,-3.7 -2.354,-5.729 l -1.43,-1.581 c -0.867,-0.867 -1.164,-2.342 -0.268,-3.475 0.757,-0.957 1.834,-1.365 3.601,-0.886 2.577,0.698 3.726,2.487 5.642,3.93 -0.791,2.595 -1.309,5.2 -1.776,7.538 l -0.287,1.74 c -1.371,7.186 -2.416,11.131 -5.134,13.396 -0.547,0.391 -1.331,0.973 -2.51,1.014 -0.619,0.02 -0.818,-0.406 -0.828,-0.592 -0.014,-0.434 0.353,-0.633 0.596,-0.828 0.363,-0.199 0.912,-0.527 0.875,-1.578 -0.041,-1.246 -1.071,-2.324 -2.559,-2.273 -1.117,0.037 -2.816,1.086 -2.752,3.01 0.066,1.984 1.916,3.473 4.706,3.377 1.492,-0.049 4.822,-0.656 8.103,-4.557 3.819,-4.473 4.888,-9.6 5.692,-13.352 l 0.896,-4.953 c 0.499,0.059 1.031,0.1 1.611,0.113 4.757,0.102 7.136,-2.363 7.173,-4.155 0.023,-1.085 -0.712,-2.152 -1.742,-2.128 -0.736,0.021 -1.662,0.511 -1.884,1.529 -0.217,1 1.514,1.902 0.161,2.779 -0.961,0.623 -2.684,1.061 -5.11,0.705 l 0.442,-2.439 c 0.899,-4.624 2.011,-10.312 6.224,-10.449 0.307,-0.016 1.431,0.014 1.457,0.756 0.007,0.248 -0.054,0.312 -0.344,0.88 -0.297,0.442 -0.408,0.819 -0.395,1.253 0.042,1.18 0.939,1.956 2.238,1.91 1.737,-0.057 2.237,-1.748 2.209,-2.618 -0.072,-2.045 -2.226,-3.335 -5.075,-3.243 z" /></g><g
       id="g3426"
       transform="translate(0,-0.02889389)"><g
         id="g3428"><path
           style="fill:#89609e"
           inkscape:connector-curvature="0"
           id="path3430"
           d="m 200.791,50.172 c 6.474,0 10.813,4.677 10.813,11.147 0,6.097 -4.424,11.146 -10.813,11.146 -6.428,0 -10.852,-5.049 -10.852,-11.146 0,-6.47 4.338,-11.147 10.852,-11.147 z m 0,19.125 c 4.593,0 6.637,-4.176 6.637,-7.978 0,-4.048 -2.463,-7.972 -6.637,-7.972 -4.216,0 -6.68,3.924 -6.68,7.972 0,3.802 2.047,7.978 6.68,7.978 z" /></g><path
         style="fill:#89609e"
         inkscape:connector-curvature="0"
         id="path3432"
         d="m 189.401,52.154 0,-1.481 -5.638,0 0,-2.024 c 0,-2.881 0.419,-5.055 3.798,-5.055 0.062,0 0.128,0.006 0.193,0.009 0.007,0 0.005,-0.011 0.013,-0.011 0.938,0.068 1.72,-0.695 1.772,-1.633 l 0.068,-1.286 c -0.793,-0.126 -1.63,-0.25 -2.63,-0.25 -5.803,0 -7.138,3.382 -7.138,8.56 l 0,1.69 -5.015,0 0,1.653 c 0.129,0.857 0.863,1.518 1.758,1.518 0.004,0 0.009,0.004 0.014,0.004 l 3.243,0 0,18.119 2.16,0 c 0.005,0 0.002,0 0.007,0 0.9,0 1.634,-0.678 1.756,-1.541 l 0,-16.578 3.926,0 c 0.924,-0.031 1.667,-0.77 1.713,-1.694 z" /><path
         style="fill:#89609e"
         inkscape:connector-curvature="0"
         id="path3434"
         d="m 137.125,50.673 c -0.006,0 -0.011,0.005 -0.021,0.005 -0.826,0 -1.627,0.568 -1.977,1.337 l -5.399,16.278 -0.084,0 -5.281,-16.27 c -0.346,-0.773 -1.15,-1.346 -1.982,-1.346 -0.01,0 -0.013,-0.005 -0.021,-0.005 l -2.737,0 7.223,19.874 c 0.252,0.711 0.754,1.797 0.754,2.254 0,0.42 -1.17,5.26 -4.679,5.26 -0.086,0 -0.174,-0.01 -0.259,-0.016 -0.895,-0.049 -1.571,0.576 -1.72,1.539 l -0.107,1.359 c 0.71,0.125 1.422,0.293 2.674,0.293 5.176,0 6.721,-4.721 8.184,-8.811 l 7.847,-21.753 -2.415,0 z" /><path
         style="fill:#89609e"
         inkscape:connector-curvature="0"
         id="path3436"
         d="m 112.177,54.998 c -3.24,-1.658 -6.787,-2.785 -6.849,-6.121 0.01,-3.543 3.266,-4.474 5.774,-4.471 0.012,-0.002 0.022,-0.002 0.028,-0.002 1.09,0 1.961,0.108 2.812,0.295 0.011,0 0.009,-0.014 0.022,-0.014 0.9,0.066 1.655,-0.637 1.76,-1.523 l 0.072,-1.287 c -1.645,-0.408 -3.364,-0.617 -4.86,-0.617 -5.455,0.034 -9.506,2.779 -9.519,8.018 0.006,4.58 3.092,6.355 6.414,7.963 3.256,1.566 6.821,2.858 6.852,6.639 -0.018,3.943 -3.824,5.396 -6.447,5.402 -1.534,-0.006 -3.199,-0.387 -4.603,-0.83 -0.879,-0.145 -1.6,0.631 -1.715,1.658 l -0.118,1.146 c 1.929,0.623 3.906,1.168 5.895,1.168 0,0 0.002,0 0.004,0 0.005,0 0.012,0 0.018,0 6.112,-0.045 10.862,-2.482 10.881,-8.811 -0.007,-4.882 -3.116,-6.933 -6.421,-8.613 z" /><path
         style="fill:#89609e"
         inkscape:connector-curvature="0"
         id="path3438"
         d="m 171.534,71.967 c 0.003,0 0.003,0 0.005,0 0.847,0 1.554,-0.596 1.731,-1.389 l 0,-12.264 c 0,-4.635 -1.958,-8.143 -7.389,-8.143 -1.92,0 -5.134,1.088 -6.596,4.135 -1.126,-2.881 -3.59,-4.135 -6.051,-4.135 -3.133,0 -5.263,1.127 -6.765,3.592 l -0.084,0 0,-1.324 c -0.012,-0.975 -0.801,-1.762 -1.777,-1.762 -0.009,0 -0.013,-0.005 -0.019,-0.005 l -1.877,0 0,21.294 2.124,0 c 0.003,0 0.003,0 0.005,0 0.984,0 1.78,-0.799 1.78,-1.781 0,-0.027 0.009,-0.037 0.018,-0.055 l 0,-8.895 c 0,-3.965 1.585,-7.889 5.592,-7.889 3.171,0 3.802,3.297 3.802,5.928 l 0,12.691 2.153,0 c 0.002,0 0.002,0 0.006,0 0.93,0 1.679,-0.715 1.762,-1.623 l 0,-9.107 c 0,-3.965 1.588,-7.889 5.595,-7.889 3.173,0 3.8,3.297 3.8,5.928 l 0,12.691 2.185,0 z" /><path
         style="fill:#89609e"
         inkscape:connector-curvature="0"
         id="path3440"
         d="m 232.182,71.967 c 0.002,0 0.002,0 0.005,0 0.957,0 1.728,-0.756 1.773,-1.703 l 0,-10.948 c 0,-5.719 -2.466,-9.145 -7.977,-9.145 -2.964,0 -5.801,1.463 -6.973,3.886 l -0.082,0 0,-1.591 c 0,-0.002 -0.004,-0.002 -0.004,-0.006 0,-0.987 -0.799,-1.783 -1.779,-1.783 -0.011,0 -0.013,-0.005 -0.02,-0.005 l -1.998,0 0,21.294 2.157,0 c 0,0 0,0 0.004,0 0.934,0 1.691,-0.727 1.763,-1.643 l 0,-8.211 c 0,-5.176 2.006,-8.766 6.473,-8.766 3.427,0.207 4.507,2.627 4.507,7.597 l 0,11.022 2.151,0 z" /><path
         style="fill:#89609e"
         inkscape:connector-curvature="0"
         id="path3442"
         d="m 253.31,50.673 c -0.01,0 -0.014,0.005 -0.022,0.005 -0.827,0 -1.629,0.568 -1.978,1.337 l -5.397,16.278 -0.088,0 -5.282,-16.27 c -0.346,-0.773 -1.15,-1.346 -1.98,-1.346 -0.008,0 -0.013,-0.005 -0.02,-0.005 l -2.737,0 7.224,19.874 c 0.25,0.711 0.755,1.797 0.755,2.254 0,0.42 -1.171,5.26 -4.681,5.26 -0.085,0 -0.171,-0.01 -0.259,-0.016 -0.895,-0.049 -1.568,0.576 -1.722,1.539 l -0.105,1.359 c 0.709,0.125 1.422,0.293 2.675,0.293 5.176,0 6.72,-4.721 8.184,-8.811 l 7.849,-21.753 -2.416,0 z" /></g></g><g
     style="font-style:normal;font-weight:normal;font-size:73.76278687px;line-height:100%;font-family:sans-serif;letter-spacing:0px;word-spacing:0px;fill:#89609e;fill-opacity:1;stroke:none;stroke-width:1px;stroke-linecap:butt;stroke-linejoin:miter;stroke-opacity:1"
     id="text3454"><path
       d="m 339.61709,49.749436 q -1.19865,-2.028477 -1.19865,-5.578311 0,-2.489494 0.59933,-4.840683 0.59932,-2.39729 1.70576,-4.333564 0.50712,-0.968136 1.10644,-1.705764 0.64543,-0.78373 1.33695,-1.429154 1.61356,-1.336951 3.13492,-1.521357 0.78373,-0.0922 1.89017,0.184406 1.10644,0.230509 2.25899,1.383053 1.29085,1.33695 2.21288,3.918648 0.13831,-0.78373 0.23051,-1.567459 0.13831,-0.78373 0.23051,-1.613561 l 0,-0.368814 q 0,-1.521358 1.15254,-2.351189 1.19865,-0.875933 2.6278,-1.106442 1.42916,-0.230509 2.5817,0.138305 1.15254,0.368814 1.15254,1.290849 0,-0.0461 0,1.613561 0.0461,1.659663 0,4.24136 0,2.535596 -0.0922,5.670514 -0.0922,3.088817 -0.27661,5.901023 1.70576,-1.936273 3.18102,-4.794581 1.47525,-2.858308 2.6739,-7.099668 0.18441,-0.553221 0.64542,-0.829831 0.50712,-0.276611 1.06034,-0.138306 0.55323,0.184407 0.82984,0.691527 0.27661,0.461017 0.1383,1.014238 -0.82983,3.042715 -1.84407,5.440005 -1.01424,2.351189 -2.16678,4.195259 -1.10644,1.84407 -2.35119,3.273224 -1.19864,1.383052 -2.48949,2.443392 -0.64543,6.131532 -1.70577,10.32679 -1.06034,4.195259 -2.6278,6.546447 -0.92203,1.383053 -2.02847,2.397291 -1.10645,1.014238 -2.30509,1.659663 -1.89017,0.968136 -3.91865,0.968136 l -0.78373,0 q -2.30509,-0.27661 -4.10305,-1.613561 -1.84407,-1.429154 -2.6739,-3.411529 -0.87594,-2.074578 -0.50712,-4.287462 0.36881,-2.212883 1.98237,-4.149156 1.01424,-1.290849 2.16678,-2.258986 1.19865,-0.922035 2.39729,-1.659662 1.19865,-0.737628 2.4434,-1.336951 1.29084,-0.599323 2.53559,-1.152543 l 1.52136,-0.691527 q 0.18441,-1.521357 0.32271,-3.134918 0.18441,-1.659663 0.27661,-3.411529 l 0.13831,-3.319325 q -0.36882,0.829831 -0.82983,1.613561 -0.41492,0.737628 -0.92204,1.475255 -0.92203,1.383053 -2.39729,2.812207 -1.47526,1.429154 -3.13492,2.166782 -1.65966,0.783729 -3.31932,0.507119 -1.61356,-0.230509 -2.85831,-2.166782 z m 12.26306,6.684752 q -2.35119,1.06034 -4.56407,2.258986 -2.16678,1.244747 -3.91865,3.365427 -2.21288,2.766104 -1.06034,5.624412 0.55322,1.521358 1.33695,1.936274 0.78373,0.414915 1.65966,0.0461 0.92204,-0.322712 1.79797,-1.198645 0.87594,-0.875933 1.56746,-1.890171 1.01424,-1.475256 1.79797,-4.056954 0.78373,-2.535596 1.38305,-6.08543 z m -4.79458,-18.763409 q -1.29085,3.088817 -1.29085,6.500346 0,1.751866 0.18441,2.535596 0.18441,0.783729 0.59932,0.783729 0.41492,0 1.01424,-0.691526 0.59932,-0.737628 1.42915,-1.936273 0.92204,-1.290849 1.61356,-2.766104 0.69153,-1.521358 1.24475,-3.134919 -0.50712,0.0461 -0.92203,-0.230508 -0.41492,-0.276611 -0.55322,-0.78373 -0.78373,-2.90441 -1.52136,-2.950512 -0.69153,-0.0461 -1.79797,2.673901 z"
       style="font-style:normal;font-variant:normal;font-weight:normal;font-stretch:normal;font-size:46.10174179px;line-height:100%;font-family:'October Twilight';-inkscape-font-specification:'October Twilight, Normal';text-align:start;writing-mode:lr-tb;text-anchor:start;fill:#89609e;fill-opacity:1"
       id="path4151" /><path
       d="m 365.33178,56.756901 q -1.06034,-1.613561 -1.24475,-4.702378 -0.23051,-3.088817 0.41491,-7.837296 0.23051,-1.659663 0.50712,-3.088817 0.27661,-1.475256 0.50712,-2.535596 0.23051,-1.06034 0.41492,-1.705764 0.1383,-0.645425 0.1383,-0.691526 0.32272,-1.014239 1.01424,-1.613561 0.73763,-0.599323 1.61356,-0.829832 0.92204,-0.230508 1.84407,-0.184407 0.92204,0.0461 1.65967,0.322713 0.73762,0.27661 1.15254,0.691526 0.46102,0.414915 0.32271,0.922035 0,0 -0.23051,0.829831 -0.1844,0.78373 -0.46101,2.074578 -0.27662,1.290849 -0.59933,2.90441 -0.27661,1.567459 -0.50712,3.134919 -0.46101,3.088816 -0.55322,4.932886 -0.0922,1.797968 0.18441,2.166782 0.27661,0.368814 0.87593,-0.829832 0.64543,-1.198645 1.65967,-4.195258 0.64542,-1.936273 1.15254,-3.826445 0.55322,-1.936273 0.92203,-3.411529 0.36882,-1.521357 0.55322,-2.443392 0.18441,-0.968136 0.18441,-0.968136 0.0922,-0.553221 0.55322,-0.875934 0.50712,-0.322712 1.06034,-0.184407 0.59933,0.0922 0.87594,0.553221 0.32271,0.461018 0.2305,1.06034 0,0.0922 -0.2305,1.06034 -0.18441,0.968137 -0.55323,2.489495 -0.36881,1.521357 -0.92203,3.45763 -0.50712,1.936273 -1.19865,3.918648 -1.61356,4.886785 -3.31932,7.560686 -0.69153,1.106442 -1.70577,2.028477 -1.01423,0.922034 -2.12068,1.33695 -1.10644,0.414916 -2.21288,0.0922 -1.10644,-0.276611 -1.98237,-1.613561 z m 8.52882,-28.675284 q 0,1.06034 -0.96814,1.84407 -0.92203,0.783729 -2.25898,0.783729 -1.33695,0 -2.30509,-0.783729 -0.96814,-0.78373 -0.96814,-1.84407 0,-1.06034 0.96814,-1.797968 0.96814,-0.783729 2.30509,-0.783729 1.33695,0 2.25898,0.783729 0.96814,0.737628 0.96814,1.797968 z"
       style="font-style:normal;font-variant:normal;font-weight:normal;font-stretch:normal;font-size:46.10174179px;line-height:100%;font-family:'October Twilight';-inkscape-font-specification:'October Twilight, Normal';text-align:start;writing-mode:lr-tb;text-anchor:start;fill:#89609e;fill-opacity:1"
       id="path4153" /><path
       d="m 373.97009,30.01789 q 0,-1.521357 0.23051,-2.950511 0.23051,-1.429154 0.78373,-2.535596 0.50712,-1.106442 1.33695,-1.751866 0.82983,-0.691526 2.07458,-0.691526 1.19864,0 2.02847,0.507119 0.82984,0.461017 1.29085,1.290849 0.50712,0.783729 0.69153,1.797968 0.18441,0.968136 0.1383,1.982374 -0.0922,1.475256 -0.50712,2.90441 -0.36881,1.429154 -0.87593,2.766105 0.59932,0.27661 1.42916,0.230508 0.87593,-0.0461 1.75186,-0.230508 0.92204,-0.230509 1.70577,-0.553221 0.78373,-0.368814 1.24474,-0.737628 0.0922,-0.0461 0.13831,-0.0922 0.0922,-0.0461 0.18441,-0.0922 0.78373,-0.737628 1.98237,-0.737628 1.19865,-0.0461 2.25899,0.322712 1.06034,0.322713 1.75186,0.968137 0.69153,0.599323 0.50712,1.152543 -0.0461,-0.138305 -0.41491,1.106442 -0.32272,1.244747 -0.82984,3.227122 -0.46101,1.936273 -0.96813,4.287462 -0.46102,2.351189 -0.82983,4.379666 -0.32272,1.982375 -0.46102,3.365427 -0.0922,1.33695 0.18441,1.33695 0.41491,0 1.01423,-0.968136 0.64543,-0.968137 1.29085,-2.443393 0.64543,-1.475255 1.29085,-3.273223 0.69153,-1.797968 1.24475,-3.503733 0.59932,-1.705764 1.01424,-3.042715 0.46101,-1.383052 0.64542,-1.982375 0.18441,-0.507119 0.64543,-0.783729 0.50711,-0.322712 1.06034,-0.184407 0.55322,0.138305 0.82983,0.645424 0.32271,0.507119 0.1383,1.06034 -0.27661,0.922035 -0.87593,2.90441 -0.59932,1.936273 -1.47526,4.287462 -0.82983,2.351189 -1.98237,4.886785 -1.10644,2.489494 -2.4895,4.564072 -1.33695,2.074579 -2.95051,3.365427 -1.56746,1.336951 -3.36542,1.336951 -1.65967,0 -2.4895,-1.244747 -0.82983,-1.198646 -1.06034,-3.18102 -0.18441,-1.936274 0.0461,-4.379666 0.23051,-2.489494 0.69153,-4.978988 0.50712,-2.535596 1.06034,-4.840683 0.59932,-2.305087 1.06034,-3.96475 -0.59932,0.184407 -1.24475,0.322713 -0.59932,0.138305 -1.24474,0.27661 -1.75187,0.368814 -3.50374,0.322712 -1.70576,-0.0922 -3.08881,-0.783729 -1.38306,-0.691527 -2.21289,-2.074579 -0.87593,-1.383052 -0.87593,-3.595936 z m 5.2095,0.507119 q 0.36881,-1.152543 0.59932,-2.581697 0.23051,-1.429154 -0.36881,-2.489494 -0.73763,1.106442 -0.64543,2.535596 0.0922,1.383052 0.41492,2.535595 z"
       style="font-style:normal;font-variant:normal;font-weight:normal;font-stretch:normal;font-size:46.10174179px;line-height:100%;font-family:'October Twilight';-inkscape-font-specification:'October Twilight, Normal';text-align:start;writing-mode:lr-tb;text-anchor:start;fill:#89609e;fill-opacity:1"
       id="path4155" /><path
       d="m 407.8736,16.78669 q -0.55322,3.826445 -1.19865,7.698991 -0.59932,3.826445 -1.24474,7.698991 -0.59932,3.826445 -1.19865,7.698991 -0.55322,3.872546 -0.92203,7.745093 -0.23051,2.443392 -0.36882,5.02509 -0.0922,2.581697 -0.0461,4.471868 0.0922,1.936274 0.32271,2.766105 0.27661,0.875933 0.82984,-0.0922 1.06034,-1.751867 2.07457,-4.195259 1.06034,-2.397291 2.12068,-5.486107 0.92204,-2.6278 1.65967,-5.163395 0.78373,-2.581698 1.29085,-4.564073 0.55322,-2.028476 0.82983,-3.273223 0.32271,-1.244747 0.32271,-1.290849 0.1383,-0.553221 0.59932,-0.829832 0.50712,-0.322712 1.06034,-0.184407 0.55322,0.0922 0.82983,0.599323 0.32272,0.507119 0.23051,1.06034 0,0 -0.32271,1.290849 -0.32271,1.244747 -0.87593,3.319325 -0.55322,2.028477 -1.33695,4.656276 -0.73763,2.581698 -1.65967,5.301701 -1.10644,3.18102 -2.25898,5.716616 -1.10644,2.581697 -2.16678,4.425767 -0.50712,0.875933 -1.19865,1.797968 -0.64542,0.922035 -1.47525,1.659662 -0.78373,0.78373 -1.70577,1.290849 -0.92203,0.507119 -1.89017,0.507119 -1.70577,0 -2.72,-1.290848 -1.65967,-1.890172 -1.93628,-6.86916 -0.23051,-2.950511 -0.0461,-6.638651 0.13831,-3.642037 0.55322,-7.560685 0.36882,-3.918648 0.92204,-7.837297 0.55322,-3.918648 1.15254,-7.376278 0.59932,-3.503733 1.15254,-6.269837 0.55323,-2.766105 0.92204,-4.425767 0.18441,-0.829832 0.82983,-1.475256 0.69153,-0.645424 1.56746,-1.06034 0.92203,-0.414916 1.84407,-0.553221 0.96814,-0.184407 1.75187,-0.0461 0.82983,0.138305 1.29084,0.553221 0.50712,0.414916 0.41492,1.198645 z"
       style="font-style:normal;font-variant:normal;font-weight:normal;font-stretch:normal;font-size:46.10174179px;line-height:100%;font-family:'October Twilight';-inkscape-font-specification:'October Twilight, Normal';text-align:start;writing-mode:lr-tb;text-anchor:start;fill:#89609e;fill-opacity:1"
       id="path4157" /><path
       d="m 434.39002,34.858573 q 0.50712,0.230509 0.73763,0.737628 0.27661,0.507119 0.0461,1.014238 -1.06034,2.950512 -3.36543,5.255599 -2.25898,2.305087 -4.93288,4.379665 1.24474,1.936274 1.98237,4.195259 0.73763,2.258985 0.50712,5.117293 -0.36881,3.68814 -2.44339,6.500346 -0.92204,1.198645 -2.12068,2.166782 -1.19865,1.014238 -2.5817,1.705764 -2.35119,1.06034 -4.51797,1.06034 -2.16678,0 -3.73424,-1.06034 -1.24475,-0.875933 -1.84407,-2.305087 -0.55322,-1.383052 -0.41492,-3.18102 0.41492,-4.564073 4.10306,-8.574924 0.78373,-0.922035 1.70576,-1.751866 0.92204,-0.829832 1.84407,-1.613561 -0.78373,-1.244747 -1.70576,-2.443393 -0.92204,-1.198645 -1.89017,-2.39729 -1.47526,-1.797968 -2.95051,-3.734241 -1.42916,-1.936273 -2.4434,-4.195259 -2.30508,-5.071191 -1.29085,-10.926113 0.55322,-3.042714 1.89018,-5.209496 1.33695,-2.212884 3.08881,-2.996614 1.06034,-0.461017 2.21289,-0.27661 1.19864,0.138305 2.21288,0.78373 1.06034,0.645424 1.79797,1.705764 0.78373,1.014238 1.01424,2.305087 0.36881,1.982375 -0.18441,4.610174 -0.50712,2.535596 -1.52136,5.117294 -0.96814,2.535595 -1.93627,4.471869 0.96813,1.475255 2.12068,2.766104 1.19864,1.244747 2.39729,2.581698 0.78373,0.829831 1.52136,1.659662 0.78373,0.78373 1.52135,1.705765 2.4895,-1.936273 4.47187,-3.918648 2.02848,-2.028477 2.90441,-4.425767 0.23051,-0.553221 0.73763,-0.78373 0.50712,-0.276611 1.06034,-0.0461 z m -18.34849,-2.535596 q 0.73762,-1.244747 1.24474,-2.720002 0.55323,-1.475256 0.87594,-2.950512 0.32271,-1.475256 0.41491,-2.812206 0.0922,-1.336951 -0.0461,-2.305087 -0.0922,-0.968137 -0.41491,-1.429154 -0.27661,-0.461018 -0.78373,-0.230509 -0.59933,0.276611 -1.33695,1.567459 -0.73763,1.290849 -0.96814,3.734241 -0.18441,2.120681 0.0922,3.872547 0.27661,1.751866 0.92204,3.273223 z m -1.56746,28.398673 q -0.0922,1.521358 0.46102,2.074579 0.55322,0.599322 1.38305,0.414915 0.87593,-0.184407 1.89017,-0.968136 1.06034,-0.737628 1.93627,-1.84407 0.87594,-1.06034 1.38305,-2.351189 0.55323,-1.290848 0.46102,-2.489494 -0.27661,-2.489494 -1.24475,-4.564072 -2.48949,2.074578 -4.24136,4.379665 -1.75186,2.351189 -2.02847,5.347802 z"
       style="font-style:normal;font-variant:normal;font-weight:normal;font-stretch:normal;font-size:46.10174179px;line-height:100%;font-family:'October Twilight';-inkscape-font-specification:'October Twilight, Normal';text-align:start;writing-mode:lr-tb;text-anchor:start;fill:#89609e;fill-opacity:1"
       id="path4159" /></g></svg>